<?xml version="1.0" standalone="no"?>
<!DOCTYPE svg PUBLIC "-//W3C//DTD SVG 20010904//EN"
 "http://www.w3.org/TR/2001/REC-SVG-20010904/DTD/svg10.dtd">
<svg version="1.0" xmlns="http://www.w3.org/2000/svg"
 width="700.000000pt" height="700.000000pt" viewBox="0 0 700.000000 700.000000"
 preserveAspectRatio="xMidYMid meet">
<metadata>
Created by potrace 1.14, written by Peter Selinger 2001-2017
</metadata>
<g transform="translate(0.000000,700.000000) scale(0.100000,-0.100000)"
fill="#000000" stroke="none">
<path d="M3050 6960 c-58 -4 -111 -8 -118 -9 -8 0 -11 -8 -8 -18 2 -10 8 -55
11 -100 7 -81 7 -82 -16 -87 -391 -79 -640 -157 -920 -288 -825 -387 -1488
-1125 -1813 -2020 -38 -105 -126 -392 -126 -411 0 -3 45 -16 101 -29 l101 -23
-6 -45 c-3 -25 -13 -101 -23 -170 -21 -158 -25 -651 -5 -810 102 -828 451
-1535 1043 -2116 166 -161 275 -254 444 -375 105 -76 327 -219 339 -219 2 0
21 29 41 65 20 36 39 65 43 65 4 0 65 -25 135 -55 326 -141 659 -227 1027
-266 147 -15 490 -15 645 0 439 44 855 163 1260 361 316 154 502 275 848 551
21 17 20 18 -42 90 -35 41 -65 80 -68 87 -3 6 34 54 83 105 110 116 232 268
333 417 566 834 733 1878 467 2926 -46 182 -156 507 -176 519 -4 3 -45 -11
-90 -30 -45 -19 -83 -35 -85 -35 -2 0 -16 21 -31 48 -74 131 -143 246 -196
325 -557 832 -1441 1379 -2453 1516 -264 36 -512 46 -745 31z m787 -915 c391
-79 810 -276 1128 -530 373 -298 682 -726 861 -1190 21 -55 39 -101 39 -102 1
-2 36 9 79 23 42 14 80 24 82 21 3 -3 14 -55 25 -115 96 -566 11 -1152 -242
-1661 -187 -379 -431 -671 -817 -978 l-23 -18 60 -85 c34 -47 60 -89 58 -94
-2 -5 -38 -29 -80 -52 -285 -157 -639 -274 -977 -321 -173 -24 -539 -24 -705
0 -389 57 -763 197 -1099 412 l-116 74 -41 -55 c-23 -30 -45 -54 -50 -54 -17
0 -245 236 -326 337 -495 618 -691 1386 -558 2179 13 78 33 178 45 222 11 44
20 87 20 95 0 9 -28 22 -85 37 -47 13 -85 26 -85 31 0 17 75 180 127 279 315
588 869 1056 1503 1269 263 89 616 151 858 151 l72 0 0 81 0 82 61 -7 c34 -3
117 -17 186 -31z"/>
<path d="M4793 4686 c-23 -7 -61 -24 -85 -38 -24 -13 -428 -331 -898 -707
-470 -376 -861 -689 -868 -694 -10 -8 -86 62 -310 286 -270 268 -304 299 -367
329 -63 29 -79 33 -160 33 -105 0 -169 -20 -242 -75 -167 -126 -212 -358 -103
-530 16 -25 228 -243 472 -486 344 -342 454 -446 491 -463 118 -54 238 -54
346 0 94 48 2107 1660 2155 1726 92 126 99 303 19 440 -37 63 -124 138 -191
164 -71 27 -199 35 -259 15z"/>
</g>
</svg>
