<?xml version="1.0" standalone="no"?>
<!DOCTYPE svg PUBLIC "-//W3C//DTD SVG 20010904//EN"
 "http://www.w3.org/TR/2001/REC-SVG-20010904/DTD/svg10.dtd">
<svg version="1.0" xmlns="http://www.w3.org/2000/svg"
 width="700.000000pt" height="700.000000pt" viewBox="0 0 700.000000 700.000000"
 preserveAspectRatio="xMidYMid meet">
<metadata>
Created by potrace 1.14, written by Peter Selinger 2001-2017
</metadata>
<g transform="translate(0.000000,700.000000) scale(0.100000,-0.100000)"
fill="#000000" stroke="none">
<path d="M3498 6476 c-1 -2 -66 -6 -143 -10 -77 -3 -158 -8 -180 -11 -22 -3
-59 -7 -82 -10 -36 -5 -214 -36 -279 -49 -97 -20 -318 -90 -469 -149 -71 -29
-308 -149 -395 -202 -278 -168 -541 -393 -744 -635 -39 -47 -73 -87 -76 -90
-3 -3 -22 -27 -41 -55 -177 -247 -296 -466 -393 -723 -41 -108 -110 -354 -132
-467 -4 -22 -8 -42 -9 -45 -1 -3 -5 -30 -9 -60 -5 -30 -10 -64 -12 -75 -26
-137 -26 -632 1 -785 2 -14 7 -43 10 -65 3 -23 7 -52 10 -65 156 -824 618
-1515 1317 -1973 48 -31 90 -57 93 -57 4 0 19 -9 34 -19 39 -28 253 -134 356
-177 140 -57 366 -130 466 -149 11 -2 28 -6 37 -9 9 -3 33 -8 52 -11 19 -3 60
-10 90 -15 109 -19 182 -28 275 -35 67 -6 389 -6 440 -1 22 2 69 7 105 10 36
4 76 9 90 11 14 2 45 7 70 10 44 6 161 28 210 40 14 3 34 8 46 10 34 8 211 63
284 89 542 196 1018 550 1380 1026 144 189 313 492 390 700 17 47 38 103 47
125 8 22 17 47 19 55 1 8 17 65 34 125 46 167 75 329 96 535 8 79 8 375 0 450
-28 259 -40 318 -79 375 -75 110 -206 156 -338 119 -53 -15 -73 -27 -120 -74
-74 -73 -94 -130 -86 -244 4 -45 9 -92 12 -106 25 -119 22 -455 -6 -615 -5
-33 -12 -69 -14 -80 -17 -105 -97 -379 -116 -400 -5 -5 -9 -15 -9 -23 0 -26
-108 -245 -178 -362 -303 -503 -774 -887 -1307 -1065 -134 -45 -275 -81 -360
-91 -22 -3 -46 -7 -53 -10 -70 -22 -584 -22 -654 0 -7 3 -31 7 -53 10 -153 20
-358 77 -535 149 -139 57 -366 179 -445 239 -5 4 -53 40 -105 80 -136 103
-296 257 -390 374 -305 381 -481 804 -529 1274 -9 85 -7 427 3 507 107 854
656 1580 1449 1917 313 132 607 187 967 181 370 -6 665 -74 995 -230 108 -51
125 -57 184 -60 131 -7 268 92 302 217 27 103 -12 233 -91 300 -48 42 -238
130 -415 194 -182 65 -446 130 -612 150 -18 2 -50 6 -70 9 -21 3 -99 7 -173
11 -74 3 -140 7 -147 9 -6 2 -13 2 -15 1z"/>
<path d="M6005 5815 c-70 -16 -108 -38 -170 -98 -64 -62 -2477 -2461 -2638
-2624 -62 -62 -116 -113 -121 -113 -4 0 -156 147 -338 328 -216 215 -345 336
-376 352 -65 34 -195 35 -259 2 -110 -57 -167 -149 -168 -267 0 -127 -2 -125
508 -632 270 -269 469 -459 493 -471 101 -51 231 -43 314 20 14 11 533 524
1153 1141 621 617 1301 1293 1511 1502 211 209 394 398 408 420 90 143 30 337
-128 418 -50 25 -133 35 -189 22z"/>
</g>
</svg>
